<svg xmlns="http://www.w3.org/2000/svg" xmlns:se="http://svg-edit.googlecode.com" xmlns:xlink="http://www.w3.org/1999/xlink" xmlns:dc="http://purl.org/dc/elements/1.1/" xmlns:cc="http://creativecommons.org/ns#" xmlns:rdf="http://www.w3.org/1999/02/22-rdf-syntax-ns#" xmlns:inkscape="http://www.inkscape.org/namespaces/inkscape" width="600" height="250">                                    <title>my vector image</title>                                    <!-- Created with Vector Paint - http://www.vectorpaint.yaks.com/ https://chrome.google.com/webstore/detail/hnbpdiengicdefcjecjbnjnoifekhgdo -->                                    <rect id="backgroundrect" width="100%" height="100%" x="0" y="0" fill="#FFFFFF" stroke="none" style="" class=""/>                                <g class="currentLayer" style=""><title>Layer 1</title><polyline fill="none" stroke="#4141e8" stroke-width="15" stroke-linejoin="round" stroke-dashoffset="" fill-rule="nonzero" marker-start="" marker-mid="" marker-end="" id="svg_1" points="100.82164001464844,66.78378295898438 103.52433776855469,60.70269775390625 104.20001220703125,50.56756591796875 104.20001220703125,41.783782958984375 101.497314453125,32.324317932128906 92.71353149414062,26.243240356445312 81.90271759033203,22.86486053466797 73.79460906982422,22.86486053466797 69.06488037109375,28.270263671875 65.01082611083984,37.72972106933594 59.60542297363281,51.918914794921875 54.875694274902344,70.83782958984375 52.848663330078125,92.45945739746094 52.848663330078125,120.16215515136719 51.497314453125,146.5135040283203 48.118934631347656,166.10809326171875 44.06488037109375,182.32431030273438 38.65947723388672,194.48648071289062 33.929744720458984,199.89187622070312 31.90271759033203,201.24322509765625 31.90271759033203,197.18917846679688 29.875694274902344,191.78378295898438 29.875694274902344,191.10809326171875 " style="color: rgb(0, 0, 0);" class="" stroke-opacity="1"/><polyline fill="none" stroke="#4141e8" stroke-width="15" stroke-linejoin="round" stroke-dashoffset="" fill-rule="nonzero" marker-start="" marker-mid="" marker-end="" id="svg_2" points="10.281097412109375,107.32431030273438 14.335151672363281,104.62161254882812 15.010826110839844,103.94593811035156 17.713531494140625,101.91891479492188 22.443260192871094,101.91891479492188 33.929744720458984,103.94593811035156 53.52433776855469,106.64863586425781 74.47028350830078,108 93.38920593261719,108 104.87568664550781,106.64863586425781 107.57839965820312,104.62161254882812 107.57839965820312,103.94593811035156 106.22703552246094,103.94593811035156 104.87568664550781,103.94593811035156 " style="color: rgb(0, 0, 0);" class="" stroke-opacity="1"/><polyline fill="none" stroke="#4141e8" stroke-width="15" stroke-linejoin="round" stroke-dashoffset="" fill-rule="nonzero" marker-start="" marker-mid="" marker-end="" id="svg_3" points="148.11892700195312,16.10810089111328 148.11892700195312,13.405403137207031 148.11892700195312,12.729728698730469 147.44325256347656,12.729728698730469 146.767578125,14.081077575683594 145.41622924804688,24.216209411621094 144.06488037109375,43.81080627441406 142.71353149414062,66.10810852050781 139.33514404296875,89.75674438476562 133.92974853515625,111.37837219238281 131.22703552246094,126.91891479492188 131.22703552246094,141.78378295898438 131.22703552246094,153.94593811035156 133.92974853515625,163.4053955078125 137.30812072753906,171.51351928710938 142.03785705566406,175.56756591796875 145.41622924804688,175.56756591796875 148.11892700195312,172.8648681640625 152.17298889160156,164.08108520507812 157.57838439941406,155.2972869873047 164.33514404296875,147.18917846679688 171.767578125,139.08106994628906 175.14596557617188,132.32431030273438 177.17298889160156,128.94593811035156 " style="color: rgb(0, 0, 0);" class="" stroke-opacity="1"/><polyline fill="none" stroke="#4141e8" stroke-width="15" stroke-linejoin="round" stroke-dashoffset="" fill-rule="nonzero" marker-start="" marker-mid="" marker-end="" id="svg_4" points="203.5243377685547,110.02702331542969 202.84866333007812,110.02702331542969 199.47027587890625,114.75674438476562 196.09190368652344,127.59458923339844 194.7405548095703,141.10809326171875 196.09190368652344,154.62161254882812 201.497314453125,160.70269775390625 208.92974853515625,163.4053955078125 215.0108184814453,163.4053955078125 219.7405548095703,159.35134887695312 221.09190368652344,152.59458923339844 223.11892700195312,142.45945739746094 225.82164001464844,130.97296142578125 229.20001220703125,120.16215515136719 230.55136108398438,109.35134887695312 227.84866333007812,102.59458923339844 222.44325256347656,99.89189147949219 213.6594696044922,99.21621704101562 207.57838439941406,100.56756591796875 204.20001220703125,101.24324035644531 203.5243377685547,102.59458923339844 " style="color: rgb(0, 0, 0);" class="" stroke-opacity="1"/><polyline fill="none" stroke="#4141e8" stroke-width="15" stroke-linejoin="round" stroke-dashoffset="" fill-rule="nonzero" marker-start="" marker-mid="" marker-end="" id="svg_5" points="274.47027587890625,110.02702331542969 272.4432678222656,111.37837219238281 271.0918884277344,121.51350402832031 270.4162292480469,139.08106994628906 270.4162292480469,163.4053955078125 271.767578125,187.72970581054688 271.767578125,206.64865112304688 271.767578125,217.45944213867188 269.06488037109375,222.18917846679688 267.7135314941406,222.8648681640625 267.037841796875,222.8648681640625 266.3621826171875,218.810791015625 266.3621826171875,204.62161254882812 267.037841796875,185.02700805664062 269.06488037109375,163.4053955078125 271.0918884277344,141.78378295898438 273.79461669921875,124.21620178222656 277.8486633300781,113.4053955078125 285.2810974121094,109.35134887695312 295.4162292480469,108 304.20001220703125,111.37837219238281 312.9837951660156,119.48648071289062 320.4162292480469,130.2972869873047 325.8216247558594,141.78378295898438 328.5243225097656,155.2972869873047 328.5243225097656,162.729736328125 325.1459655761719,166.10809326171875 319.06488037109375,167.45944213867188 307.5783996582031,166.78378295898438 292.7135314941406,162.05404663085938 277.1729736328125,155.97296142578125 265.6864929199219,149.8918914794922 262.9837951660156,147.18917846679688 263.65948486328125,147.18917846679688 267.037841796875,147.18917846679688 " style="color: rgb(0, 0, 0);" class="" stroke-opacity="1"/><polyline fill="none" stroke="#4141e8" stroke-width="15" stroke-linejoin="round" stroke-dashoffset="" fill-rule="nonzero" marker-start="" marker-mid="" marker-end="" id="svg_6" points="371.9027099609375,116.91891479492188 371.9027099609375,118.270263671875 371.9027099609375,121.64863586425781 371.9027099609375,129.75674438476562 371.2270202636719,137.86485290527344 369.1999816894531,143.94593811035156 367.8486328125,150.70269775390625 366.4972839355469,156.7837677001953 366.4972839355469,162.18917846679688 366.4972839355469,166.91891479492188 366.4972839355469,168.270263671875 366.4972839355469,169.62161254882812 366.4972839355469,170.29727172851562 368.5243225097656,170.29727172851562 371.9027099609375,170.29727172851562 376.6324157714844,168.270263671875 379.33514404296875,165.56756591796875 381.3621520996094,163.54052734375 382.037841796875,163.54052734375 384.0648498535156,163.54052734375 384.74053955078125,164.21621704101562 384.74053955078125,164.21621704101562 " style="color: rgb(0, 0, 0);" class="" stroke-opacity="1"/><polyline fill="none" stroke="#4141e8" stroke-width="15" stroke-linejoin="round" stroke-dashoffset="" fill-rule="nonzero" marker-start="" marker-mid="" marker-end="" id="svg_7" points="371.9027099609375,74.35134887695312 371.9027099609375,75.02702331542969 371.9027099609375,78.4053955078125 371.9027099609375,83.81080627441406 373.2540588378906,85.83782958984375 373.9297180175781,86.51350402832031 375.9567565917969,85.83782958984375 376.6324157714844,81.78378295898438 376.6324157714844,79.08106994628906 376.6324157714844,77.05404663085938 375.28106689453125,76.37837219238281 372.578369140625,75.02702331542969 370.5513610839844,75.70269775390625 369.87567138671875,76.37837219238281 369.87567138671875,76.37837219238281 369.87567138671875,77.72972106933594 370.5513610839844,77.72972106933594 371.2270202636719,77.72972106933594 371.2270202636719,77.72972106933594 " style="color: rgb(0, 0, 0);" class="" stroke-opacity="1"/><polyline fill="none" stroke="#4141e8" stroke-width="15" stroke-linejoin="round" stroke-dashoffset="" fill-rule="nonzero" marker-start="" marker-mid="" marker-end="" id="svg_8" points="450.28106689453125,58.810791015625 452.30810546875,58.13511657714844 457.037841796875,55.43241882324219 460.41619873046875,47.99998474121094 463.118896484375,40.56755065917969 463.118896484375,33.81080627441406 461.09185791015625,29.756752014160156 456.3621826171875,27.054046630859375 450.9567565917969,27.054046630859375 446.2270202636719,27.054046630859375 442.8486328125,29.756752014160156 440.8216247558594,35.83782958984375 438.7945861816406,46.64863586425781 438.1189270019531,62.189178466796875 438.1189270019531,82.45944213867188 438.1189270019531,103.4053955078125 436.0918884277344,122.99998474121094 436.0918884277344,139.21620178222656 436.0918884277344,158.13511657714844 436.0918884277344,173.6756591796875 436.0918884277344,179.75674438476562 435.41619873046875,182.45947265625 434.74053955078125,182.45947265625 432.7135009765625,182.45947265625 430.6864929199219,180.43243408203125 428.6594543457031,179.75674438476562 424.60540771484375,177.729736328125 419.87567138671875,175.70269775390625 417.1729736328125,175.02703857421875 416.4972839355469,174.35134887695312 416.4972839355469,174.35134887695312 " style="color: rgb(0, 0, 0);" class="" stroke-opacity="1"/><polyline fill="none" stroke="#4141e8" stroke-width="15" stroke-linejoin="round" stroke-dashoffset="" fill-rule="nonzero" marker-start="" marker-mid="" marker-end="" id="svg_9" points="417.1729736328125,92.59458923339844 417.8486328125,92.59458923339844 418.5243225097656,92.59458923339844 423.2540588378906,93.94593811035156 428.6594543457031,95.29728698730469 436.7675476074219,95.29728698730469 444.1999816894531,93.94593811035156 449.60540771484375,92.59458923339844 455.0108337402344,92.59458923339844 457.7135314941406,92.59458923339844 458.3891906738281,92.59458923339844 460.4162292480469,91.24324035644531 461.0918884277344,91.24324035644531 " style="color: rgb(0, 0, 0);" class="" stroke-opacity="1"/><polyline fill="none" stroke="#4141e8" stroke-width="15" stroke-linejoin="round" stroke-dashoffset="" fill-rule="nonzero" marker-start="" marker-mid="" marker-end="" id="svg_10" points="488.92974853515625,75.83784484863281 487.578369140625,74.48649597167969 486.9027099609375,74.48649597167969 486.22705078125,74.48649597167969 485.55133056640625,77.18919372558594 485.55133056640625,86.64865112304688 485.55133056640625,100.16217041015625 484.87567138671875,115.02703857421875 484.87567138671875,129.8918914794922 486.22705078125,140.7027130126953 489.60540771484375,146.1081085205078 494.33514404296875,147.45947265625 498.38922119140625,148.13514709472656 505.82159423828125,144.7567596435547 514.6054077148438,139.3513641357422 522.7135009765625,129.21621704101562 529.4702758789062,115.02703857421875 533.5243530273438,99.48649597167969 535.5513305664062,88.67568969726562 536.22705078125,85.29730224609375 536.22705078125,86.64865112304688 535.5513305664062,86.64865112304688 535.5513305664062,88 534.8756713867188,88 534.2000122070312,93.40541076660156 533.5243530273438,98.81082153320312 532.1729736328125,109.62162780761719 530.1459350585938,127.18919372558594 528.118896484375,144.08108520507812 524.7405395507812,158.270263671875 522.037841796875,171.78375244140625 520.0108032226562,187.32431030273438 517.9837646484375,201.51348876953125 516.6324462890625,211.64862060546875 513.2540283203125,217.72970581054688 507.1729736328125,223.13510131835938 501.0919189453125,227.18914794921875 493.65948486328125,230.56753540039062 484.20001220703125,231.24322509765625 472.037841796875,231.24322509765625 459.20001220703125,232.59457397460938 440.9567565917969,231.91888427734375 418.6594543457031,229.89187622070312 398.3891906738281,229.89187622070312 375.4162292480469,230.56753540039062 352.4432373046875,229.89187622070312 330.1459655761719,228.54052734375 308.5243225097656,227.18914794921875 284.87567138671875,225.83779907226562 260.5513610839844,224.4864501953125 234.87567138671875,224.4864501953125 210.55136108398438,225.83779907226562 190.28109741210938,227.86483764648438 168.6594696044922,229.89187622070312 148.3892059326172,229.89187622070312 130.82164001464844,229.89187622070312 115.95677185058594,231.24322509765625 104.47027587890625,233.27023315429688 96.3621826171875,233.9459228515625 89.60543060302734,233.9459228515625 84.20001220703125,233.9459228515625 81.497314453125,233.9459228515625 80.14596557617188,235.29727172851562 78.11892700195312,236.64862060546875 77.44325256347656,236.64862060546875 77.44325256347656,236.64862060546875 76.76758575439453,236.64862060546875 76.09191131591797,236.64862060546875 75.4162368774414,236.64862060546875 74.06488037109375,236.64862060546875 70.6865005493164,236.64862060546875 67.30812072753906,236.64862060546875 63.92973327636719,237.99996948242188 61.9027099609375,237.99996948242188 59.87568664550781,237.99996948242188 58.524330139160156,237.99996948242188 57.848663330078125,237.99996948242188 57.17298889160156,237.99996948242188 56.497314453125,237.99996948242188 55.821624755859375,237.99996948242188 55.14595031738281,237.99996948242188 55.14595031738281,238.6756591796875 54.47028350830078,238.6756591796875 52.44325256347656,238.6756591796875 49.06488037109375,238.6756591796875 45.686500549316406,239.351318359375 41.6324462890625,239.351318359375 36.902713775634766,239.351318359375 31.497310638427734,239.351318359375 27.443256378173828,239.351318359375 24.064876556396484,239.351318359375 21.362171173095703,239.351318359375 18.659473419189453,239.351318359375 17.308116912841797,239.351318359375 16.632442474365234,239.351318359375 15.956768035888672,239.351318359375 15.28109359741211,239.351318359375 " style="color: rgb(0, 0, 0);" class="" stroke-opacity="1"/></g></svg>